<?xml version="1.0" encoding="utf-8"?>
<!-- Generator: Adobe Illustrator 15.0.0, SVG Export Plug-In . SVG Version: 6.00 Build 0)  -->
<!DOCTYPE svg PUBLIC "-//W3C//DTD SVG 1.1//EN" "http://www.w3.org/Graphics/SVG/1.1/DTD/svg11.dtd">
<svg version="1.1" id="Layer_1" focusable="false" xmlns="http://www.w3.org/2000/svg" xmlns:xlink="http://www.w3.org/1999/xlink"
	 x="0px" y="0px" width="810px" height="810px" viewBox="135 0 810 810" enable-background="new 135 0 810 810"
	 xml:space="preserve">
<path fill="#FF99CC" d="M427.5,46c-42.047,0-76.922,28.828-86.906,67.781c-1.125,0-1.969-0.281-3.094-0.281
	c-49.641,0-90,40.359-90,90c0,6.75,0.844,13.359,2.391,19.688C208.828,240.063,180,280.281,180,327.25
	c0,17.719,4.5,34.172,11.672,49.078C157.922,395.734,135,431.734,135,473.5c0,46.828,28.688,87.047,69.469,103.922
	c-1.266,6.469-1.969,13.078-1.969,19.828c0,55.969,45.281,101.25,101.25,101.25c5.766,0,11.391-0.703,16.875-1.688
	C334.125,736.891,371.531,766,416.25,766c55.969,0,101.25-45.281,101.25-101.25V136C517.5,86.359,477.141,46,427.5,46z M945,473.5
	c0-41.766-22.922-77.766-56.672-97.172C895.641,361.422,900,344.969,900,327.25c0-46.969-28.828-87.188-69.891-104.063
	c1.406-6.328,2.391-12.938,2.391-19.688c0-49.641-40.359-90-90-90c-1.125,0-2.109,0.281-3.094,0.281
	C729.422,74.828,694.547,46,652.5,46c-49.641,0-90,40.219-90,90v528.75c0,55.969,45.281,101.25,101.25,101.25
	c44.719,0,82.125-29.109,95.625-69.188c5.484,0.984,11.109,1.688,16.875,1.688c55.969,0,101.25-45.281,101.25-101.25
	c0-6.75-0.703-13.359-1.969-19.828C916.313,560.547,945,520.328,945,473.5z"/>
</svg>
